# xmcd
#
# Track frame offsets:
#	150
#	17254
#	35421
#	53739
#
# Disc length: 926 seconds
#
# Revision: 2
# Processed by: cddbd v1.5.1PL2 Copyright (c) Steve Scherf et al.
# Submitted via: dBpowerAMP V4.0
#
DISCID=22039c04
DTITLE=ANAPHORA - single
DYEAR=2004
DGENRE=AlternRock
TTITLE0=CHAPITRE 1 - La nuit me condamne
TTITLE1=CHAPITRE 2 - Envoutée
TTITLE2=CHAPITRE 3 - Tu cherche un paradis (7th heaven)
TTITLE3=CHAPITRE 4 - Damon
EXTD=
EXTT0=
EXTT1=
EXTT2=
EXTT3=
PLAYORDER=
